<?xml version="1.0" encoding="utf-8"?>
<!-- Generator: Adobe Illustrator 27.0.0, SVG Export Plug-In . SVG Version: 6.00 Build 0)  -->
<svg version="1.1" id="Layer_1" xmlns="http://www.w3.org/2000/svg" xmlns:xlink="http://www.w3.org/1999/xlink" x="0px" y="0px"
	 viewBox="0 0 100 100" style="enable-background:new 0 0 100 100;" xml:space="preserve">
<style type="text/css">
	.st0{fill:#263238;}
	.st1{fill:#1F846A;}
</style>
<path class="st0" d="M53.3,30c0,1.8-1.5,3.3-3.3,3.3l0,0c-1.8,0-3.3-1.5-3.3-3.3V13.3c0-1.8,1.5-3.3,3.3-3.3l0,0
	c1.8,0,3.3,1.5,3.3,3.3V30z"/>
<path class="st0" d="M53.3,86.7c0,1.8-1.5,3.3-3.3,3.3l0,0c-1.8,0-3.3-1.5-3.3-3.3V70c0-1.8,1.5-3.3,3.3-3.3l0,0
	c1.8,0,3.3,1.5,3.3,3.3V86.7z"/>
<path class="st0" d="M30,46.7c1.8,0,3.3,1.5,3.3,3.3l0,0c0,1.8-1.5,3.3-3.3,3.3H13.3c-1.8,0-3.3-1.5-3.3-3.3l0,0
	c0-1.8,1.5-3.3,3.3-3.3H30z"/>
<path class="st0" d="M86.7,46.7c1.8,0,3.3,1.5,3.3,3.3l0,0c0,1.8-1.5,3.3-3.3,3.3H70c-1.8,0-3.3-1.5-3.3-3.3l0,0
	c0-1.8,1.5-3.3,3.3-3.3H86.7z"/>
<path class="st1" d="M33.5,61.8c1.3-1.3,3.4-1.3,4.7,0l0,0c1.3,1.3,1.3,3.4,0,4.7L26.4,78.3c-1.3,1.3-3.4,1.3-4.7,0l0,0
	c-1.3-1.3-1.3-3.4,0-4.7L33.5,61.8z"/>
<path class="st1" d="M73.6,21.7c1.3-1.3,3.4-1.3,4.7,0l0,0c1.3,1.3,1.3,3.4,0,4.7L66.5,38.2c-1.3,1.3-3.4,1.3-4.7,0l0,0
	c-1.3-1.3-1.3-3.4,0-4.7L73.6,21.7z"/>
<path class="st1" d="M61.8,66.5c-1.3-1.3-1.3-3.4,0-4.7l0,0c1.3-1.3,3.4-1.3,4.7,0l11.8,11.8c1.3,1.3,1.3,3.4,0,4.7l0,0
	c-1.3,1.3-3.4,1.3-4.7,0L61.8,66.5z"/>
<path class="st1" d="M21.7,26.4c-1.3-1.3-1.3-3.4,0-4.7l0,0c1.3-1.3,3.4-1.3,4.7,0l11.8,11.8c1.3,1.3,1.3,3.4,0,4.7l0,0
	c-1.3,1.3-3.4,1.3-4.7,0L21.7,26.4z"/>
</svg>
